<svg xmlns="http://www.w3.org/2000/svg" width="140" height="140" viewBox="0 0 140 140">
  <g fill="none" stroke="#5a72f2" stroke-width="0.6" opacity="0.14" stroke-linecap="round">
    <!-- horizontal + vertical backbones -->
    <path d="M0 70 H140 M70 0 V140"/>
    <!-- angled traces -->
    <path d="M20 20 L50 20 L50 50 M90 20 L120 20 L120 55"/>
    <path d="M20 90 L20 120 L55 120 M85 120 L120 120 L120 90"/>
    <!-- small branches -->
    <path d="M50 50 L60 50 M90 90 L90 100 L100 100"/>
  </g>
  <g fill="#7c96f8" opacity="0.28">
    <circle cx="20" cy="20" r="1.5"/>
    <circle cx="50" cy="50" r="2"/>
    <circle cx="120" cy="20" r="1.5"/>
    <circle cx="120" cy="55" r="1.2"/>
    <circle cx="20" cy="120" r="1.5"/>
    <circle cx="120" cy="120" r="1.5"/>
    <circle cx="90" cy="90" r="1.2"/>
    <circle cx="70" cy="70" r="2.2"/>
  </g>
</svg>
