<svg xmlns="http://www.w3.org/2000/svg" width="1080" height="1005"><path fill="#6d5c95" d="m902 21.875 3.438.055L908 22c2.257 4.514 1.293 10.515 1.313 15.5l.01 2.09c.036 17.226-1.783 34.264-3.617 51.373a320 320 0 0 0-1.21 14.97c-.742 11.914-3.08 23.549-5.418 35.232q-.675 3.398-1.336 6.798c-1.811 9.163-4.062 18.082-6.742 27.037q-.754 2.697-1.492 5.398c-10.655 38.557-27.828 77.557-55.281 107.18a148 148 0 0 0-4.266 4.844c-10.043 11.81-22.74 20.275-35.524 28.828l-1.697 1.14C784.362 327.992 775.8 333.1 767 338l-2.779 1.558q-3.788 2.112-7.596 4.192l-2.777 1.52c-8.048 4.37-16.219 8.474-24.465 12.458-6.778 3.316-13.09 7.113-19.383 11.272l-1.942 1.256c-4.51 2.776-4.51 2.776-6.683 7.369L701 380c5.002-.323 9.042-.863 13.633-2.898 5.362-2.216 10.687-3.38 16.367-4.477 10.337-2.144 20.12-4.921 30-8.625l3.242-1.213c18.351-6.874 18.351-6.874 35.966-15.413 3.596-1.942 6.728-2.92 10.792-3.374l1-3a87 87 0 0 1 6.25-4l1.738-1.04A861 861 0 0 1 825 333q2.5-1.498 5-3c-.506 4.355-1.384 7.442-4 11h-2l-.356 2.247c-.64 2.737-1.453 4.45-2.945 6.808l-1.444 2.326-1.567 2.494a340 340 0 0 0-12.813 22.75 764 764 0 0 1-22.275 40.274 572 572 0 0 0-7.35 12.789c-9.391 16.458-19.943 32.12-31.25 47.312l-3.164 4.285c-13.2 17.81-13.2 17.81-17.836 22.715h-2l-.707 2.168c-1.53 3.352-3.452 5.47-5.98 8.144l-2.512 2.676-1.362 1.447c-1.56 1.697-3.061 3.438-4.564 5.186-27.532 31.562-60.513 52.49-101.023 63.965-5.828 1.669-11.585 3.549-17.352 5.414-7.184 2.32-14.371 4.594-21.625 6.688-11.098 3.215-21.984 6.746-32.582 11.394C531 613 531 613 529 613c-2.338 3.713-1.961 4.194-1 9h24v-2l3.633-.41c42.474-4.849 42.474-4.849 84.2-13.812 4.91-1.328 9.074-2.062 14.167-1.778-4.12 11.295-13.108 19.332-21.5 27.543-4.352 4.263-8.303 8.788-12.172 13.488l-1.64 1.969-1.426 1.75C616 650 616 650 614 650l-1 3c-4.457 4-4.457 4-7 4l-.7 2.25c-1.553 3.284-3.213 4.594-6.112 6.75-2.691 2.02-5.164 3.976-7.532 6.371C575.094 688.763 553.297 700.918 533 712l-3.034 1.664c-37.52 20.43-77.301 34.116-118.098 46.515l-3.538 1.076q-3.324 1.005-6.652 1.994c-27.137 8.182-42.223 25.12-56.082 49.047-1.792 3.037-3.648 6.03-5.51 9.024-3.976 6.436-7.69 12.991-11.336 19.617l-1.967 3.562q-1.974 3.576-3.942 7.155a3507 3507 0 0 1-4.915 8.897c-4.358 7.897-8.631 15.83-12.735 23.863-.33.647-.66 1.295-1.002 1.961l-1.013 1.984c-7.106 13.916-14.56 27.521-22.574 40.942a850 850 0 0 0-6.08 10.456c-1.767 3.073-3.548 6.139-5.333 9.202q-1.14 1.957-2.272 3.918C254.953 973.524 254.953 973.524 248 977c-2.094-.086-2.094-.086-4.5-.375l-2.406-.273C239 976 239 976 237 975c-12.098-49.867 28.34-115.96 49.94-158.887 1.872-3.732 3.722-7.474 5.576-11.215 8.065-16.249 16.121-32.478 25.019-48.293 1.645-2.925 3.275-5.859 4.906-8.793q1.747-3.125 3.497-6.25l1.612-2.892c2.233-3.958 4.473-7.817 7.153-11.49 2.033-2.815 3.613-5.497 5.11-8.617l1.269-2.622L342 714h2l1-5 3-1 .313-2.187c.76-3.11 1.997-5.104 3.687-7.813 3.396-5.633 6.763-11.274 10-17h2l.34-2.201c.692-2.937 1.697-4.982 3.215-7.58l1.595-2.767 1.725-2.952c4.322-7.503 8.498-15.04 12.438-22.75 6.65-12.917 14.175-25.322 21.687-37.75l1.676-2.776c13.434-22.206 13.434-22.206 19.949-31.349 2.781-3.906 5.138-7.9 7.332-12.16C435 557 435 557 437 556a249 249 0 0 0 2.822-4.949c2.114-3.68 4.574-7.127 6.99-10.614q1.74-2.525 3.477-5.05l1.833-2.659c3.201-4.65 6.384-9.314 9.565-13.978l1.93-2.83a1549 1549 0 0 0 10.508-15.607Q476.56 496.654 479 493l1.426-2.14a539 539 0 0 1 21.741-30.19 327 327 0 0 0 13.56-18.962c3.077-4.61 3.077-4.61 5.273-5.708a271 271 0 0 0 2.992-5.21c1.187-2.108 2.367-4.006 4.008-5.79h3l.375-2.312C532 420 532 420 534 417h2l.219-2.184c1.001-3.61 2.67-5.207 5.281-7.878 3.661-3.875 6.966-7.754 10.125-12.063 3.814-5.189 7.692-10.428 12.375-14.875h2l.75-2.187c1.373-3.09 2.974-5.323 5.25-7.813h2l.813-2.25c1.148-2.66 2.222-4.628 4.187-6.75h3l.777-2.273c1.285-2.866 2.492-4.248 4.785-6.352 3.152-3.022 5.921-6.135 8.625-9.562 4.966-6.192 10.513-11.702 16.195-17.227 3.844-3.769 7.627-7.6 11.419-11.422l5.511-5.539c.913-.92 1.825-1.84 2.764-2.79 6.125-6.146 12.411-11.951 19.111-17.46 2.818-2.312 2.818-2.312 5.25-4.812 2.47-2.47 5.034-4.709 7.72-6.938 1.44-1.27 2.824-2.606 4.183-3.965 2.83-2.83 5.763-5.53 8.722-8.223a324 324 0 0 0 15.155-14.779c1.225-1.255 2.5-2.462 3.783-3.658h2v-2c1.533-1.232 3.13-2.384 4.75-3.5 5.547-3.914 10.68-8.158 15.816-12.594C721 226 721 226 723 226l.75-1.687c1.466-2.712 3.305-4.928 5.25-7.313l1-2c-6.103.473-10.832 3.224-16.125 6.063l-2.818 1.489c-6.263 3.357-12.188 6.954-17.975 11.085C691 235 691 235 689 235v2c-6.625 3.875-6.625 3.875-10 5v2c-2.117 1.727-2.117 1.727-4.875 3.625l-2.742 1.914C669 251 669 251 667 251l-1 3c-1.453 1.21-1.453 1.21-3.25 2.375-3.304 2.252-5.95 4.756-8.75 7.625-2.634 2.371-5.318 4.683-8 7a1077 1077 0 0 0-15.422 13.676 1029 1029 0 0 1-5.156 4.617c-4.563 4.066-9 8.19-13.242 12.59-1.876 1.822-3.792 3.517-5.775 5.218-4.535 3.959-8.81 8.143-13.07 12.395l-2.41 2.401q-2.506 2.498-5.007 5a3267 3267 0 0 1-7.629 7.59l-4.89 4.884-2.283 2.26c-4.03 4.049-7.622 8.144-10.903 12.825C559 356 559 356 557 357l-1.36 2.293c-1.704 2.813-3.518 4.752-5.89 7.02a163 163 0 0 0-9.879 10.535c-2.202 2.533-4.473 4.995-6.746 7.464-4.921 5.403-9.542 10.999-14.125 16.688q-1.55 1.898-3.102 3.793c-5.86 7.165-11.634 14.377-17.242 21.742a584 584 0 0 1-6 7.711c-6.102 7.743-12.019 15.537-17.538 23.708-3.482 5.152-7.086 10.204-10.743 15.233a844 844 0 0 0-12.996 18.403c-3.416 4.935-6.966 9.775-10.512 14.617-3.692 5.07-7.197 10.246-10.66 15.475a1266 1266 0 0 1-7.266 10.779l-1.328 1.955q-2.699 3.973-5.401 7.942c-5.528 8.118-10.953 16.287-16.24 24.564-2.441 3.81-4.946 7.574-7.472 11.328-17.061 25.532-33.382 51.29-48.212 78.196-6.075 11.02-12.355 21.89-19.038 32.554-4.574 7.37-8.742 14.964-12.956 22.543a741 741 0 0 1-10.856 18.894c-4.345 7.306-8.333 14.635-11.438 22.563-3-2-3-2-3.653-3.729-.438-2.869-.69-5.718-.904-8.613l-.293-3.893-.151-2.073q-.236-3.222-.48-6.444-.515-6.843-1.019-13.686-.586-7.926-1.183-15.852-.236-3.167-.467-6.336l-.293-3.903-.254-3.429c-.273-2.745-.745-5.344-1.303-8.042-2.18-18.152-2.348-36.434-2.316-54.689q.007-4.268-.02-8.535c-.182-28.834-.182-28.834 2.593-42.886.807-4.227 1.305-8.426 1.743-12.702.698-6.302 1.798-12.395 3.215-18.583 1.033-4.742 1.84-9.514 2.607-14.306.818-4.893 2.05-9.598 3.388-14.373 1.367-5.062 2.461-10.185 3.603-15.301 3.583-15.78 7.812-31.355 13.187-46.625 2.867.573 3.861.861 6 3a74 74 0 0 1 1.742 4.621c2.405 6.83 4.975 13.587 7.577 20.344q.815 2.12 1.623 4.244 1.183 3.103 2.378 6.201l1.415 3.692c1.08 2.957 1.08 2.957 3.265 4.898 5.145-6.852 8.159-13.892 11-21.937l1.32-3.644c2.063-5.723 4.051-11.462 5.903-17.257 6.495-20.303 15.504-39.78 24.222-59.206q1.225-2.725 2.44-5.455c4.615-10.33 9.486-20.365 15.175-30.15a253 253 0 0 0 5.002-9.101C402.48 339.28 409.2 330.063 416 321l1.754-2.348c4.854-6.28 10.237-12.024 15.703-17.768 3.75-3.942 7.385-7.95 10.913-12.093 2.264-2.488 4.787-4.593 7.353-6.76 2.235-1.993 4.323-4.093 6.408-6.242 19.12-19.694 19.12-19.694 26.994-19.851L488 256q.079 2.593.125 5.188l.07 2.917C488 267 488 267 487.063 269.32c-1.47 3.705-1.808 7.433-2.188 11.368l-.25 2.592c-.648 7.485-.873 14.96-.937 22.47l-.054 3.315c.005 6.324.49 11.25 3.366 16.935l3 1c8.086-11.551 10.983-25.293 14.422-38.755C510.425 264.916 519.552 245.2 534 226l2.125-2.836c8.573-11.038 18.519-20.911 28.35-30.814q1.563-1.575 3.122-3.156A236 236 0 0 1 589 170a395 395 0 0 0 3.277-2.75c5.01-4.237 10.076-8.387 15.285-12.375l2.942-2.258C613 151 613 151 616 151l.745-1.804c1.471-2.574 2.899-3.657 5.333-5.333l2.5-1.738 2.672-1.812 2.717-1.868c2.67-1.828 5.349-3.64 8.033-5.445l2.264-1.529C651.386 124 651.386 124 655 124l1-3c2.422-1.621 2.422-1.621 5.75-3.437l3.887-2.153 2.138-1.175c3.101-1.721 6.17-3.496 9.242-5.27 3.633-2.091 7.277-4.16 10.923-6.229a2617 2617 0 0 0 6.291-3.582C727.475 80.216 762.243 64.574 798 51l3.603-1.37C817.223 43.712 832.832 38.24 849 34l4.463-1.185q12.584-3.347 25.182-6.643l2.191-.574q2.065-.54 4.132-1.073 2.103-.543 4.202-1.098c4.405-1.141 8.274-1.647 12.83-1.552"/><path fill="#b8a8e8" d="m830.375 844.563 2.396-.02c21.93-.11 21.93-.11 30.479 5.644L865 852c-11.268 4.082-22.45 7.48-34.187 9.938-13.56 2.858-26.657 6.728-39.813 11.062l-2.657.862c-42.883 14.002-83.261 35.768-121.942 58.677-33.511 19.808-71.956 41.623-111.838 41.649l-3.026.037c-18.338.036-33.98-8.575-46.912-21.1-5.467-5.462-9.89-11.424-14.23-17.8-6.867-10.068-14.751-20.91-25.082-27.575l-2.325-1.516c-9.925-6.162-25.74-1.213-36.418 1.163-6.626 1.555-13.113 3.456-19.57 5.603l-3.73 1.23C383.985 921.045 365.65 930.74 348 941l-2.057 1.193c-4.214 2.45-8.41 4.93-12.602 7.42a2521 2521 0 0 1-7.665 4.52C306.62 965.216 306.62 965.216 288 977c-2.687.125-2.687.125-5 0l-2-4h-2l-1-2-4 3c2.243-16.887 20.65-32.688 33.152-42.7a173 173 0 0 0 5.227-4.382C337.527 905.161 369.77 890.723 401 880l2.732-.94c28.309-9.567 56.59-13.8 84.627-1.392 4.007 2.02 7.328 4.31 10.641 7.332l2.066 1.867c5.508 5.538 9.06 11.643 12.809 18.446 7.177 12.984 15.615 26.16 30.055 31.84 20.726 5.722 46.567-7.366 65.32-15.09l2.826-1.16c7.679-3.222 15.097-6.915 22.517-10.682 4.602-2.335 9.21-4.656 13.817-6.979l3.068-1.547C694.776 879.885 737.428 859.446 785 849l3.473-.766c13.927-2.926 27.719-3.601 41.902-3.672"/><path fill="#6d5c95" d="M196 349c3.723 3.61 3.894 7.983 4.527 12.883l.372 2.67c1.252 9.165 2.329 18.353 3.354 27.546q.465 4.152.94 8.303c2.2 19.415 3.897 38.861 5.307 58.348l.195 2.657c.664 9.034 1.306 18.066 1.766 27.113.859 16.78 2.317 33.4 4.179 50.101 1.527 13.818 2.72 27.636 3.657 41.504l.161 2.379c.533 7.86 1.048 15.722 1.528 23.587 1.083 17.613 2.684 34.74 7.014 51.909h-3c-11.328-13.784-18.516-32.21-24-49a1157 1157 0 0 0-1.453-4.117c-2.737-7.799-5.094-15.617-6.984-23.664l-.649-2.747c-2.264-9.75-4.143-19.56-5.914-29.41l-.514-2.833c-4.333-24.006-7.91-48.229-9.855-72.557-.35-4.312-.915-8.534-1.615-12.805-1.142-7.206-1.643-14.401-2.078-21.68-.677-11.121-.677-11.121-1.938-22.187l-.168 2.2q-.381 4.962-.77 9.925l-.263 3.46-.264 3.36-.238 3.079C169 442 169 442 168.455 444.987c-.481 3.188-.415 6.064-.275 9.283.053 8.825-1.916 16.898-4.055 25.418l-1.22 5.007c-3.642 14.81-7.81 29.46-12.106 44.091a682 682 0 0 0-3.998 14.284l-.525 1.953-.517 1.92c-8.523 31.621-8.523 31.621-12.93 34.452L131 582c-3.717-3.514-6.644-7.191-9.5-11.437-3.64-5.298-7.61-9.874-12.125-14.438-6.258-6.42-9.836-13.178-13.49-21.287-1.313-2.726-2.945-5.228-4.573-7.775-3.358-5.547-5.069-11.207-6.627-17.453-1.106-4.6-1.106-4.6-4.685-7.61-1.99-.39-3.99-.732-6-1v-2l6-1c-.458-3.47-.891-6.674-2-10l-8-1-1 3c-4.333 3-4.333 3-7 3 1.436 6.739 3.14 13.366 5 20-4.275-.799-5.99-2.913-9-6l-3-1v4h2v4l6 2c-1.45 3.791-3.152 7.387-5 11l-3-2-3 2c-1.875-.562-1.875-.562-4-2-1.569-3.78-2.307-5.97-1.125-9.937L48 513h-4v6h-4v-6l-6 2-1-8h-2l-1 3c-1.937.813-1.937.813-4 1l-2-2v-3l-2.25.313C19 506 19 506 16.625 503.75 15 501 15 501 15.156 499.016c2.028-4.845 8.125-7.243 12.676-9.29 4.007-1.545 7.22-2.744 11.543-2.663 2.905.232 2.905.232 5.125-2.563 2.5-2.5 2.5-2.5 5.813-2.812L53 482v2h4l.25-2.375C58 479 58 479 59.938 477.688c3.257-1.086 5.756-.384 9.062.312l-4 7h-4v4c2.8-1.142 5.473-2.328 8-4 1.128-2.615 1.128-2.615 1-5h7l-1-6h2l-1-3c-.187-3.562-.187-3.562 0-7 2-2 2-2 5.438-3.25 4.137-2.033 4.966-3.526 6.562-7.75l-4 2v-3c3.834-1.917 7.383-1.146 11.438-.187 5.313 2.514 8.284 7.994 10.562 13.187.555 2.653.983 5.314 1.417 7.99 1.02 5.266 2.828 10.263 4.583 15.322l1.078 3.167c1.994 5.85 1.994 5.85 4.074 11.67 1.19 4.002 1.794 8.04 2.41 12.164l.381 2.435c.83 5.405 1.484 10.814 2.057 16.252h3l-.14-2.316c-.264-7.806.893-14.441 3.074-21.899 1.004-3.566 1.762-7.083 2.441-10.723 4.303-21.898 10.996-42.81 18.2-63.89 3.712-10.865 7.26-21.737 10.363-32.797l1.032-3.634c1.6-5.64 3.183-11.284 4.737-16.936l.795-2.861q.72-2.595 1.42-5.196c2.52-9.051 6.03-17.442 14.266-22.56 4.388-2.293 8.923-3.612 13.812-2.188M899 387h2c1.268 18.711 1.154 37.435 1.13 56.178q-.006 6.828.004 13.656c.019 17.663-.063 35.317-.564 52.975l-.055 2.075C901.15 525.037 899.952 537.99 898 551l-.5 3.347c-2.864 18.598-7.318 36.585-12.5 54.653l-.83 2.907c-1.226 4.202-2.498 8.21-4.42 12.155-1.524 3.215-2.963 6.428-4.242 9.747-6.322 16.344-15.352 30.705-25.133 45.191l-2.097 3.11c-6.679 9.744-14.104 18.736-22.063 27.456a302 302 0 0 0-4.149 4.649C811.054 726.773 799.216 738.769 786 749q-2.785 2.308-5.562 4.625c-7.392 6.028-14.913 11.258-23.344 15.723a382 382 0 0 0-8.708 4.823 963 963 0 0 1-19.698 10.891l-2.192 1.195C721.349 789 721.349 789 718 789v-2c2.41-1.642 4.803-3.15 7.313-4.625l2.091-1.273C732.616 778 732.616 778 736 778l.793-1.831c1.293-2.323 2.377-3.33 4.516-4.868l1.998-1.462 2.13-1.527q2.188-1.605 4.372-3.214l2.167-1.594c6.768-5.03 13.068-10.401 18.922-16.473 2.447-2.364 5.054-4.427 7.727-6.531 4.072-3.258 7.105-6.443 10.043-10.727 1.347-1.792 2.694-3.024 4.457-4.398 3.092-2.554 4.704-5.02 6.875-8.375 1.71-2.051 3.476-4.043 5.258-6.031 1.578-1.783 3.07-3.608 4.554-5.469L812 703h2l.797-1.712c1.301-2.475 2.81-4.637 4.45-6.901C838.63 666.92 848.861 633.314 857 601l1.117-4.296c3.417-13.25 6.254-26.589 8.883-40.016l.66-3.367c5.825-29.897 9.16-59.85 12.149-90.14 1.888-19.14 4.334-38.163 7.191-57.181 3.03.59 6.002 1.25 9 2zM916 376c4.54 4.04 7.127 8.364 9.875 13.75l1.316 2.56c6.021 11.887 10.679 23.595 14.102 36.49l.913 3.42c3.098 11.73 5.886 23.527 8.602 35.349q1.23 5.344 2.473 10.685c2.61 11.268 5.154 22.549 7.555 33.863l.623 2.89c1.25 5.98 2.06 11.902 2.541 17.993h6c8.71-17.826 12.924-36.693 16.546-56.09C987 475 987 475 988 474c.072-2.02.084-4.042.063-6.062l-.028-3.348L988 462c3.287-.8 4.71-1.097 8 0v2l4 2v6l1.898.078 2.477.172 2.46.14 2.165.61q1.052 1.974 2 4l3.375.313L1018 478c1.018 1.75 2.033 3.509 2.89 5.344 1.405 2.097 2.455 2.44 4.86 3.094l3.25.562v-6c5.327.262 5.327.262 8 1 1.994 2.43 3 3.84 3 7l2.063-1.125c3.873-1.154 6.193-.196 9.937 1.125v3l3.625.125c4.226.541 6.493 1.961 9.32 5.11 1.729 2.893 1.445 5.514 1.055 8.765h-4l-.187 1.813c-1.151 3.098-2.92 3.74-5.813 5.187l-3 1-1-3c-2.015-.733-2.015-.733-4-1l-1 5c-2.437-.812-2.437-.812-5-2l-1-3-1.687 1.063c-2.96 1.199-4.29.896-7.313-.063a198 198 0 0 1-5-3c-6.54-2.983-9.95-4.253-17-3l-1-1c.09-1.525.245-3.047.438-4.562l.308-2.504L1010 495c2.313-.687 2.313-.687 5-1 1.563 1.375 1.563 1.375 3 3 1.997.896 1.997.896 4 1l2-2c-.319-2.108-.319-2.108-1-4-3.724-.693-7.21-1.111-11-1l-.77-1.715-1.043-2.223-1.019-2.214c-1.104-2.178-1.104-2.178-4.168-2.848l.938 2.246c1.487 5.254 1.771 10.38 2.062 15.817l.27 3.2c.468 8.953-2.083 14.943-6.27 22.737a622 622 0 0 0-1.805 3.58 727 727 0 0 1-4.727 9.242q-1.456 2.81-2.902 5.625c-5.42 10.504-10.565 20.26-19.066 28.615l-1.934 2.006c-2.911 2.903-4.882 4.714-8.847 5.979-3.272-.057-4.86-1.043-7.215-3.281-28.808-33.822-29.647-96.201-31.887-138.582-.889-15.973-3.88-30.715-7.893-46.162-.717-2.995-1.255-5.979-1.724-9.022h2z"/><path fill="#b8a8e8" d="M829 433h2c2.052 4.253 2.352 8.232 2.5 12.875.131 4.083.352 7.63 1.531 11.57 1.991 7.307.909 14.713-.156 22.118l-.382 2.698c-1.266 8.299-3.242 16.378-5.423 24.48-1.362 5.105-2.36 9.988-2.841 15.248-.335 2.944-1.124 5.68-1.979 8.511l-1.074 3.61-.576 1.9c-.856 2.838-1.684 5.683-2.515 8.528q-.961 3.278-1.933 6.552c-.669 2.26-1.323 4.52-1.96 6.789-1.57 5.523-3.619 10.725-5.883 16-1.299 3.096-2.465 6.22-3.621 9.371-2.708 7.075-6.029 13.748-9.51 20.465a775 775 0 0 0-3.752 7.41c-8.62 17.023-18.928 31.728-31.18 46.32-1.166 1.455-2.212 3.004-3.246 4.555h-2l-.78 1.758c-10.65 19.556-36.766 33.881-54.824 45.669a629 629 0 0 0-6.865 4.589c-4.907 3.275-9.948 6.303-15.031 9.297l-2.882 1.697c-6.046 3.54-12.13 6.995-18.306 10.303l-2.12 1.147c-2.928 1.541-4.834 2.54-8.192 2.54v-2l2.165-1.218C669.709 724.859 669.709 724.859 688 712l1.99-1.57c4.721-3.75 9.377-7.572 14.01-11.43l2.262-1.855c10.953-9.243 20.99-19.819 29.738-31.145q1.505-1.86 3.012-3.719C747.634 651.514 754.484 640.136 761 628l1.69-3.116c6.084-11.25 11.916-22.376 16.122-34.47 1.109-3.186 2.353-6.255 3.688-9.351 2.6-6.138 4.792-12.397 6.973-18.692 1.116-3.22 2.269-6.424 3.437-9.625 5.43-14.892 10.72-29.806 14.93-45.094a291 291 0 0 1 4.56-14.913c4.512-13.534 7.859-27.34 11.224-41.193l.633-2.592q.591-2.424 1.17-4.85c.936-3.845 1.975-7.468 3.573-11.104M315.59 284.64c2.271.221 4.252.63 6.41 1.36-.512 3.785-1.208 5.441-4 8-1.095 3.285-1.1 5.737-1.062 9.187l.027 3.293L317 309c1.959-.113 1.959-.113 4-1a133 133 0 0 0 2-5 109 109 0 0 1 5-5.813l2.688-2.957C333 292 333 292 335 292v-2h4c-1.153 5.123-3.465 7.827-6.898 11.57-3.405 3.937-6.315 8.218-9.301 12.473a357 357 0 0 1-5.946 8.195c-32.21 43.37-45.593 96.563-59 148.142q-.716 2.754-1.442 5.506c-4.664 17.719-7.333 35.378-8.975 53.614-.811 8.911-1.827 17.695-3.438 26.5l-4-1q-.478-2.186-.937-4.375l-.528-2.46c-1.258-7.44-1.696-14.887-1.738-22.423l-.021-2.587q-.025-4.14-.026-8.28l-.003-2.875c.018-24.997 2.032-49.51 7.253-74l.718-3.477c6.497-31.257 15.177-62.11 30.184-90.446q1.127-2.131 2.231-4.275c5.715-11.064 12.157-21.57 19.055-31.927l1.144-1.725c3.827-5.749 7.76-11.424 11.906-16.947l1.834-2.456C313 285 313 285 315.59 284.64M426 135v2c-2.561 2.296-3.48 3-7 3l-.812 2.313c-1.146 2.592-1.952 3.988-4.188 5.687h-3l-.693 1.806c-1.675 2.812-3.375 3.705-6.225 5.296l-3.03 1.72-3.24 1.803C388.265 164.066 378.995 169.689 370 176l-1.786 1.249c-11.076 7.769-21.939 15.79-32.355 24.43-2.579 2.094-5.198 4.107-7.85 6.105-5.022 3.785-9.72 7.66-14.056 12.232-1.83 1.859-3.715 3.555-5.699 5.246-4.175 3.624-8.106 7.445-12.008 11.36l-2.135 2.131a3794 3794 0 0 0-4.43 4.435 3631 3631 0 0 1-6.726 6.72l-4.334 4.338-2.002 1.996a215 215 0 0 0-11.028 11.953c-2.62 2.973-5.491 5.68-8.341 8.43-9.16 9.007-16.856 18.952-23.91 29.68L232 308h-2c.398-5.867.988-8.542 5-13 1.308-1.983 2.539-4.002 3.766-6.035C240 287 240 287 242.25 284.125c2.396-4.278 2.559-8.289 2.75-13.125-4.646.485-4.646.485-9 2 3.918-19.9 33.685-44.227 49-56q2.38-1.902 4.75-3.812a890 890 0 0 1 8.57-6.786l3.555-2.777 1.818-1.42c3.781-2.965 7.466-6.02 11.12-9.143C327.935 182.076 342.443 172.945 357 164l2.252-1.4c9.602-5.956 19.1-10.734 29.748-14.6q3.348-1.238 6.695-2.48 5.421-2.015 10.851-4.006c6.852-2.502 6.852-2.502 13.579-5.315C423 135 423 135 426 135"/><path fill="#6d5c95" d="M178 479c1.894.33 1.894.33 4 1 1.703 2.723 1.703 2.723 3.25 6.063l1.578 3.347L188 492l1.758-.36c4.216-.695 6.689-.857 10.742.735 3.09 3.244 2.917 4.755 3.102 9.043.808 5.24 3.955 11.431 7.968 14.965 4.905 5.547 4.483 16.052 5.243 23.117l.251 2.276c1.37 12.553 2.316 25.127 3.166 37.724l.16 2.345c.534 7.88 1.057 15.76 1.542 23.643 1.103 17.826 2.686 35.13 7.068 52.512h-3c-11.328-13.784-18.516-32.21-24-49a1157 1157 0 0 0-1.453-4.117c-2.737-7.799-5.094-15.617-6.984-23.664l-.649-2.747c-2.264-9.75-4.143-19.56-5.914-29.41l-.512-2.82a879 879 0 0 1-6.488-41.43l-.32-2.407c-1.032-7.818-1.966-15.5-1.68-23.405M989 461q3.51.43 7 1v2l4 2v6l1.898.078 2.477.172 2.46.14 2.165.61q1.052 1.974 2 4l3.375.313L1018 478c1.018 1.75 2.033 3.509 2.89 5.344 1.405 2.097 2.455 2.44 4.86 3.094l3.25.562v-6c5.327.262 5.327.262 8 1 1.994 2.43 3 3.84 3 7l2.063-1.125c3.873-1.154 6.193-.196 9.937 1.125v3l3.625.125c4.226.541 6.493 1.961 9.32 5.11 1.729 2.893 1.445 5.514 1.055 8.765h-4l-.187 1.813c-1.151 3.098-2.92 3.74-5.813 5.187l-3 1-1-3c-2.015-.733-2.015-.733-4-1l-1 5c-2.437-.812-2.437-.812-5-2l-1-3-1.687 1.063c-2.96 1.199-4.29.896-7.313-.063a198 198 0 0 1-5-3c-6.54-2.983-9.95-4.253-17-3l-1-1c.09-1.525.245-3.047.438-4.562l.308-2.504L1010 495c2.313-.687 2.313-.687 5-1 1.563 1.375 1.563 1.375 3 3 1.997.896 1.997.896 4 1l2-2c-.319-2.108-.319-2.108-1-4-3.724-.693-7.21-1.111-11-1l-.77-1.715-1.043-2.223-1.019-2.214c-1.104-2.178-1.104-2.178-4.168-2.848l.938 2.246c1.487 5.254 1.771 10.38 2.062 15.817l.27 3.2c.468 8.953-2.083 14.943-6.27 22.737a622 622 0 0 0-1.805 3.58 727 727 0 0 1-4.727 9.242q-1.456 2.81-2.902 5.625c-10.366 20.086-10.366 20.086-17.879 27.178l-1.626 1.598C969.17 577 969.17 577 968 577l-.113-3.875-.2-5.125-.068-2.543c-.246-5.773-1.367-10.136-3.619-15.457-2.854-8.762-2.177-17.897-2-27h1l1 10h6c8.71-17.826 12.924-36.693 16.546-56.09C987 475 987 475 988 474c.046-2 .038-4 0-6s-.046-4 0-6zM893 348c7.446 3.577 12.385 10.279 17.375 16.688l1.3 1.655c2.831 3.716 5.352 7.092 5.302 11.895L916 384h-2l1.305 3.652c2.064 6.2 3.43 12.533 4.82 18.91l.8 3.577c1.845 8.365 3.227 16.261 3.138 24.861l-.028 3.438L924 441l-2-3-.148 2.965c-.41 7.197-1.01 14.038-2.852 21.035l-1-3c-3.289 1.13-5.697 2.359-8 5-.729 4.73-.463 9.25 0 14h-3v11l-2 1-2-1 .035 3.191c.072 9.656-.25 19.183-1.035 28.809h-1V387h-2l.105 1.8c.225 6.863-1.023 12.68-3.105 19.2-2.763-.523-5.326-1.109-8-2-.3-7.263.858-13.511 2.5-20.562 2.753-12.564 3.063-24.63 2.5-37.438M172 384h2l-1 41h-1l-1-8-.168 2.2q-.381 4.962-.77 9.925l-.263 3.46-.264 3.36-.238 3.079C169 442 169 442 168.453 444.994c-.475 3.154-.397 5.969-.242 9.15.061 8.648-1.858 16.63-3.946 24.983a749 749 0 0 0-1.89 7.785q-.603 2.488-1.21 4.975l-.566 2.339c-.852 3.386-1.643 5.84-3.599 8.774l-1.437-2.437c-1.332-2.41-1.332-2.41-2.563-3.563-.102-2.49-.14-4.947-.125-7.437l.006-2.186c.044-5.502.385-10.921 1.119-16.377l-1.375 2.938C151 477 151 477 149 478c-.887-8.2 1.297-14.917 3.906-22.559 1.245-3.316 1.245-3.316 1.094-6.441-6.748 18.225-6.748 18.225-10.812 37.156-1.635 11.902-5.454 26.16-14.188 34.844-.788 2.494-.788 2.494-1.187 5.188-.16.9-.318 1.802-.481 2.73L127 531h-1c-.576-6.8.498-12.596 2.37-19.137a141 141 0 0 0 3.005-12.8c4.302-21.895 10.99-42.805 18.197-63.88 3.414-9.99 6.753-19.993 9.74-30.12l.8-2.686q.946-3.187 1.888-6.377l3 1 1-2 2 3z"/><path fill="#b8a8e8" d="m789 587 2 1c-.72 7.923-3.341 15.437-6.687 22.625-1.211 3.113-1.474 4.935-1.625 8.188-.81 9.899-7.45 16.387-14.418 22.863-2.37 2.248-2.37 2.248-3.946 5.117L763 649h-2l-.625 2c-1.598 3.487-3.681 6.22-6.035 9.23-1.4 1.736-1.4 1.736-2.34 3.77 3.063-1.73 3.063-1.73 4.363-4.293 1.915-3.167 4.176-5.44 6.824-8.02l2.731-2.675L768 647l1 2-1.68 2.082-2.195 2.73-2.18 2.708c-2.024 2.516-2.024 2.516-3.945 5.48h-2l-.78 1.758c-10.65 19.556-36.766 33.881-54.824 45.669a629 629 0 0 0-6.865 4.589c-4.907 3.275-9.948 6.303-15.031 9.297l-2.882 1.697c-6.046 3.54-12.13 6.995-18.306 10.303l-2.12 1.147c-2.928 1.541-4.834 2.54-8.192 2.54v-2l2.165-1.218C669.709 724.859 669.709 724.859 688 712l1.99-1.57c4.721-3.75 9.377-7.572 14.01-11.43l2.262-1.855c10.953-9.243 20.99-19.819 29.738-31.145q1.505-1.86 3.012-3.719c9.803-12.247 17.428-25.453 24.633-39.36l1.243-2.392a331 331 0 0 0 2.26-4.465c2.526-4.955 2.526-4.955 5.852-6.064l-2 7 3-1 1-2h2l.68-2.32c1.802-5.025 4.122-9.753 6.445-14.555l1.418-2.953q1.725-3.588 3.457-7.172M377 230l3 1-4 2v2l-2.375 1.75c-3.023 2.591-3.674 4.447-4.625 8.25 7.561.783 11.935-1.699 18.313-5.562a594 594 0 0 1 5.3-3.13c.772-.465 1.543-.932 2.337-1.412C397 234 397 234 400 235c-6.467 6.06-12.975 12.035-19.75 17.75-11.171 9.467-21.707 19.654-32.125 29.938l-1.748 1.708c-2.998 2.992-5.371 5.823-7.377 9.604l-1-2 1-2h-4v2a801 801 0 0 1-4.21 3.371c-2.79 2.54-4.934 5.522-7.177 8.543-1.445 1.87-2.827 3.54-4.613 5.086h-2c-1.55-4.652-1.825-9.938 0-14.5l1-1.5h2l2-7-2.312.688L317 287c-1.668-1.48-1.668-1.48-3-3 9.833-11.07 20.331-20.858 32-30q2.408-1.935 4.813-3.875c4.99-3.993 10.042-7.902 15.125-11.777a326 326 0 0 0 5.562-4.352l2.125-1.684 1.79-1.449z"/><path fill="#6d5c95" d="m1000.625 471.25 3.375.75 2.813.25 2.187.75.875 2 1.125 2 3.375.313L1018 478c1.018 1.75 2.033 3.509 2.89 5.344 1.405 2.097 2.455 2.44 4.86 3.094l3.25.562v-6c5.327.262 5.327.262 8 1 1.994 2.43 3 3.84 3 7l2.063-1.125c3.873-1.154 6.193-.196 9.937 1.125v3l3.625.125c4.226.541 6.493 1.961 9.32 5.11 1.729 2.893 1.445 5.514 1.055 8.765h-4l-.187 1.813c-1.151 3.098-2.92 3.74-5.813 5.187l-3 1-1-3c-2.015-.733-2.015-.733-4-1l-1 5c-2.437-.812-2.437-.812-5-2l-1-3-1.687 1.063c-2.96 1.199-4.29.896-7.313-.063a198 198 0 0 1-5-3c-6.54-2.983-9.95-4.253-17-3l-1-1c.09-1.525.245-3.047.438-4.562l.308-2.504L1010 495c2.313-.687 2.313-.687 5-1 1.563 1.375 1.563 1.375 3 3 1.997.896 1.997.896 4 1l2-2c-.319-2.108-.319-2.108-1-4-3.724-.693-7.21-1.111-11-1l-.77-1.715-1.043-2.223-1.019-2.214c-1.104-2.178-1.104-2.178-4.168-2.848l.035 2.816c.145 19.782.145 19.782-7.035 27.184-2.703.758-2.703.758-5 1 .409-8.685 2.619-16.693 5-25l-2.312 1.563L993 491l-3-1c-1.002-6.44 1.406-10.492 4.996-15.793C997 472 997 472 1000.625 471.25"/><path fill="#b8a8e8" d="M450 190c-2.284 5.453-6.838 9.172-10.958 13.274a651 651 0 0 0-4.411 4.456l-2.815 2.817-2.58 2.589C427 215 427 215 424 215v2h-2l-.625 1.75c-1.902 3.113-4.238 4.457-7.375 6.25h-3l-.762 1.785c-1.393 2.491-2.859 3.838-5.05 5.653-6.59 5.604-12.512 11.558-16.625 19.25-2.87 4.246-6.81 6.865-11.75 8.125-3.77 1.591-4.295 3.552-5.903 7.171C367.64 274.23 360.086 279.731 353 283l-1-2-5 5-2-1q4.744-4.787 9.5-9.562l2.688-2.713c5.106-5.126 10.311-10.027 15.812-14.725q2.506-2.243 5-4.5a980 980 0 0 1 13-11.5l4.5-3.937L399 235c-5.962 1.695-10.838 4.687-16.078 7.898-4.134 2.43-6.98 3.735-11.922 3.102l-2-1c.325-3.574.639-5.557 2.938-8.375C374 235 374 235 376 235v-2l3-2c-4.87 1.546-8.249 4.363-12.125 7.563l-1.98 1.61c-1.97 1.603-3.933 3.215-5.895 4.827q-1.712 1.398-3.426 2.793Q351.78 250.887 348 254c0-3 0-3 2.082-5.48l2.73-2.708 2.708-2.73C358 241 358 241 361 241v-3l5-2v-2c1.898-1.508 1.898-1.508 4.375-3.125l2.46-1.633C375 228 375 228 377 228v-2c7.803-5.849 16.583-10.6 25-15.5l2.714-1.601c4.42-2.539 8.085-4.557 13.286-4.899l1 2c4.611-.568 8.092-2.578 12-4.937 6.424-3.837 6.424-3.837 9.867-5.188 2.716-1.114 2.96-2.278 4.133-4.875 3-1 3-1 5-1"/><path fill="#6d5c95" d="M196 349c3.867 3.411 3.981 8.351 4.625 13.188l.372 2.663c.79 5.91 1.437 11.828 1.878 17.774l.186 2.169c.119 1.995.119 1.995-.061 5.206l-3 2a96 96 0 0 0-2.687 7.625l-.682 2.14A615 615 0 0 0 195 407l-2-1c-.487-1.79-.487-1.79-.816-4.121-.125-.854-.25-1.708-.377-2.588l-.37-2.728-.38-2.624C190.208 387.974 189.556 382 189 376l-2.437-.375L184 375l-1-2-3-1c-.705 6.887-1.1 13.75-1.246 20.668l-.05 2.334q-.101 4.784-.18 9.567c-.15 8.721-.476 17.37-1.434 26.044l-.231 2.212c-.211 1.736-.525 3.458-.859 5.175l-2 1c-.843-2.936-1.126-5.546-1.13-8.597l-.009-2.741.006-2.94-.003-3.04q0-3.182.006-6.362c.005-3.242 0-6.483-.007-9.724q0-3.093.004-6.186l-.006-2.933.01-2.75.002-2.406c.138-2.516.579-4.864 1.127-7.321h-2l-.367 2.23-.508 2.957-.492 2.918c-.613 2.805-1.49 5.267-2.633 7.895l-1.375-1.5c-1.501-1.726-1.501-1.726-3.625-1.5.574-6.802 1.902-13.017 3.813-19.562l.751-2.71c2.688-9.347 6.05-18.212 14.624-23.54 4.388-2.293 8.923-3.612 13.812-2.188"/><path fill="#b8a8e8" d="m665 930 2 2c-32.802 20.666-72.883 42.162-112.437 42.188l-3.026.037c-14.854.029-29.156-5.604-40.537-15.225l-1-2h4v2l5 1v2l3-1c2.226.162 2.226.162 4.84.559l2.938.422 3.16.457c29.827 3.884 56.544-1.005 84.062-13.188l6.016-2.629q4.423-1.934 8.841-3.878a1477 1477 0 0 1 7.893-3.43l2.398-1.064c5.51-2.363 5.51-2.363 8.852-1.249l.563-1.75c3.009-4.71 8.02-7.417 13.437-5.25"/><path fill="#6d5c95" d="m46 484 1 3h3l1 4h-4v5l6-2v-6l5-2 1 7h2l-1 11h-2v2h-3v4h2v4l6 2c-1.45 3.791-3.152 7.387-5 11l-3-2-3 2c-1.875-.562-1.875-.562-4-2-1.569-3.78-2.307-5.97-1.125-9.937L48 513h-4v6h-4v-6l-6 2-1-8h-2l-1 3c-1.937.813-1.937.813-4 1l-2-2v-3l-2.25.313C19 506 19 506 16.625 503.75 15 501 15 501 15.156 499.016c2.028-4.845 8.125-7.243 12.676-9.29 4.96-1.913 8.826-2.856 14.168-2.726 2.343-1.38 2.343-1.38 4-3"/><path fill="#b8a8e8" d="M811 845q7.574-.112 15.149-.165 2.569-.022 5.138-.061c23.401-.35 23.401-.35 31.963 5.413L865 852a280 280 0 0 1-38.155 10.854c-7.488 1.582-14.835 3.39-22.115 5.762-5.032 1.538-8.65 1.294-13.73.384 2.655-3.169 5.84-4.503 9.563-6.187l3.503-1.606C807 860 807 860 809 860v-4l-6-2v-2q2.123-.974 4.25-1.937l2.39-1.09A36.7 36.7 0 0 1 816 847l-5-1zM244 438l1 2h3a928 928 0 0 1-.375 7.063c-.07 1.31-.14 2.621-.21 3.972-.406 3.878-1.327 7.233-2.415 10.965-.334 3.178-.498 6.333-.656 9.523L244 474l-2 1 2 2c.379 2.566.379 2.566.563 5.563-.065 3.531-.065 3.531 1.437 6.437.42 9.6-.124 19.282-.5 28.875l-.145 3.855q-.174 4.635-.355 9.27l2 1a212 212 0 0 1-3 24l-4-1q-.478-2.186-.937-4.375l-.528-2.46c-1.258-7.44-1.696-14.887-1.738-22.423l-.021-2.587q-.025-4.14-.026-8.28l-.003-2.875c.018-25.015 2.134-49.47 7.253-74"/><path fill="#6d5c95" d="m154 423 4 1c.596 9.181-.92 16.39-4 25q-.861 2.44-1.719 4.883l-.915 2.6-.929 2.642-.93 2.646c-2.841 8.11-5.199 15.838-6.319 24.385-1.635 11.902-5.454 26.16-14.188 34.844-.788 2.494-.788 2.494-1.187 5.188-.16.9-.318 1.802-.481 2.73L127 531h-1c-.576-6.8.498-12.596 2.37-19.137a141 141 0 0 0 3.005-12.8c4.052-20.62 10.157-40.387 16.918-60.25l.69-2.03c1.589-4.628 3.283-9.208 5.017-13.783M893 348c7.446 3.577 12.385 10.279 17.375 16.688l1.3 1.655c2.831 3.716 5.352 7.092 5.302 11.895L916 384h-2l1 4c-3.137-2.584-4.053-5.404-5.375-9.187-2.013-5.482-4.419-9.958-7.625-14.813v-2h-2l.219 1.914c.8 7.712.883 15.338.781 23.086h-2l.105 1.8c.225 6.863-1.023 12.68-3.105 19.2-2.763-.523-5.326-1.109-8-2-.3-7.263.858-13.511 2.5-20.562 2.753-12.564 3.063-24.63 2.5-37.438"/><path fill="#b8a8e8" d="m358 898 2 1c-3.332 3.712-5.18 5.088-10 6l-.832 1.887c-1.578 2.855-3.146 3.256-6.168 4.363l-2.687 1.016C338 913 338 913 336 913l-1 3c-1.777 1.168-1.777 1.168-3.937 2.188l-2.153 1.042C327 920 327 920 325 920v2l-5 2v2l-3 1-1.875 1.938c-2.277 2.21-4.142 3.068-7.125 4.062v3l-1.812 1.313c-2.435 1.62-2.435 1.62-3.688 4.75-1.5 2.937-1.5 2.937-3.45 3.835-2.688 1.445-3.145 2.906-4.363 5.664C293.438 954 293.438 954 292 956c-3.812 1.063-3.812 1.063-7 1 2.266 3.398 3.307 3.649 7 5l3 2v4l3-2h4c-1.329 3.987-3.823 5.114-7.25 7.188l-1.738 1.115c-3.471 2.13-5.93 3.165-10.012 2.697l-2-4h-2l-1-2-4 3c2.243-16.887 20.65-32.688 33.152-42.7a173 173 0 0 0 5.227-4.382c11.828-10.233 25.652-18.417 39.371-25.856l1.858-1.017c1.43-.75 2.908-1.408 4.392-2.045"/><path fill="#6d5c95" d="M75 485.875c3 1.125 3 1.125 4.938 4.375 1.02 3.605 1.224 5.265.062 8.75h-6v2l2.75-.187c3.71.214 4.617.66 7.25 3.187 1.266 2.777 1.266 2.777 2.25 5.938l1.016 3.152C88 516 88 516 88 520l-11 2v-2l-11-3-1-4h2l-.84-1.582C63.142 505.285 62.254 499.799 62 493l3.313-1.812c2.187-1.225 3.602-2.089 5.25-4C72 486 72 486 75 485.875M172 396h1v29h-1l-1-8-.168 2.2q-.381 4.962-.77 9.925l-.263 3.46-.264 3.36-.238 3.079C169 442 169 442 168.453 444.994c-.475 3.154-.397 5.969-.242 9.15.061 8.648-1.858 16.63-3.946 24.983a749 749 0 0 0-1.89 7.785q-.603 2.488-1.21 4.975l-.566 2.339c-.852 3.386-1.643 5.84-3.599 8.774l-1.437-2.437c-1.332-2.41-1.332-2.41-2.563-3.563-1.185-14.75 1.153-29.795 8-43h4l.145-1.768q.751-9.15 1.51-18.3l.56-6.82q.404-4.916.812-9.83l.25-3.057q.343-4.114.723-8.225l.213-2.408c.55-5.355.55-5.355 2.787-7.592"/><path fill="#b8a8e8" d="M841 394h3c.056 1.583.094 3.166.125 4.75l.07 2.672c-.163 2.998-.54 5.683-1.078 8.625-.998 5.708-1.599 11.405-2.117 17.172l-.25 2.764q-.51 5.715-1 11.43c-.243 2.811-.496 5.62-.75 8.43l-.215 2.608-.222 2.43-.184 2.124c-.43 2.262-1.268 3.99-2.379 5.995-2.942-7.164-3.483-13.69-3.79-21.328-.172-3.017-.517-5.741-1.21-8.672h-2c.596-5.031 1.677-9.678 3.25-14.5l.661-2.067c.69-2.146 1.389-4.29 2.089-6.433l.707-2.183c4.09-12.613 4.09-12.613 5.293-13.817"/><path fill="#6d5c95" d="M916 376c4.639 4.1 7.212 8.574 10 14.063l1.314 2.548c7.148 14.02 7.148 14.02 8.686 19.389-1 3-1 3-3.875 4.5L929 418a100 100 0 0 0-3 3h-2v7h-1l-.445-2.586c-1.857-10.35-4.154-20.57-6.573-30.802l-.775-3.292-.704-2.96C914 386 914 386 914 384h2zM43 486l2 1v3h-2l-1 2-3-1 .5 2.188C39 496 39 496 37.254 497.375q-2.176 1.304-4.406 2.512c-2.006.984-2.006.984-2.848 3.113l7 4v3h2v-6l6-1c-.626 3.537-1.366 6.786-3 10-2.785 1.56-4.753 1.68-8 2l-1-8h-2l-1 3c-1.937.813-1.937.813-4 1l-2-2v-3l-2.25.313C19 506 19 506 16.625 503.75 15 501 15 501 15.156 499.016c2.028-4.845 8.125-7.243 12.676-9.29 4.857-1.873 8.895-3.142 14.168-2.726zM997 472h2v2l7 1c.073 2.556.036 4.833-.504 7.34-.515 2.762-.56 5.23-.496 8.035.023 8.563-.79 15.222-7 21.625-2.703.758-2.703.758-5 1 .409-8.685 2.619-16.693 5-25l-2.312 1.563L993 491l-3-1c-1.03-6.62 1.698-10.373 5.273-15.84z"/><path fill="#b8a8e8" d="m583.5 964.688 3.031-.051L589 965l2 3q-4.28 1.226-8.562 2.438l-2.424.697c-8.547 2.407-16.6 3.047-25.452 3.053l-3.025.037c-8.971.017-16.22-1.957-24.537-5.225l1-2a3046.61 3046.61 0 0 0 16.113.11q2.736.015 5.47.04c12.841.239 12.841.239 25.488-1.687 2.813-.675 5.545-.764 8.429-.775M749 656l-1 6h-2l-.062 2.625c-1.283 4.616-3.95 6.84-7.938 9.375q-1.995.519-4 1c-1.01 1.766-1.01 1.766-2 4-3.102 4.077-6.397 7.358-10.352 10.605-1.643 1.39-3.13 2.87-4.648 4.395a405 405 0 0 1-5.953 5.227 211 211 0 0 0-3.656 3.234c-3.602 3.195-6.876 5.006-11.391 6.539l-3-1c.946-.73 1.892-1.46 2.867-2.21 7.993-6.27 15.504-12.86 22.696-20.04l2.231-2.216c4.284-4.338 8.057-8.796 11.58-13.775 1.874-2.027 2.968-2.278 5.626-2.759 1.724-1.502 1.724-1.502 3.188-3.375l1.542-1.836c1.46-1.872 1.46-1.872 2.27-4.789 2-1 2-1 4-1M245 271c.476 6.687.35 10.592-4 16q-1.271 2.018-2.5 4.063c-1.474 2.41-2.817 4.28-4.75 6.375-2.498 3.657-2.56 7.216-2.75 11.562h-2c-.336-7.853-.027-15.268 1.313-23l.356-2.136c.814-4.372 1.99-8.072 4.331-11.864 3.473-1.158 6.36-1.069 10-1"/><path fill="#6d5c95" d="M1036 491c6.152-.098 6.152-.098 8 0 1 1 1 1 1.063 3.563L1045 497l2.688.875c3.312 1.125 3.312 1.125 5.75 2.188 3.156 1.154 6.233 1.545 9.562 1.937v2c-6.625 3-6.625 3-10 3v3c-1.875-.187-1.875-.187-4-1-1.133-2.55-1.133-2.55-2-5l-2.957-.262-3.855-.425-3.833-.387c-3.355-.926-3.355-.926-5.367-3.32C1030 497 1030 497 1031 494h5z"/><path fill="#b8a8e8" d="M711 701c-1.357 4.072-4.068 5.236-7.562 7.375l-1.807 1.133a701 701 0 0 1-3.711 2.306 939 939 0 0 0-5.795 3.616c-11.051 6.906-22.194 13.672-33.687 19.82l-2.145 1.16C651.368 739 651.368 739 648 739v-2l2.165-1.218c20.664-11.578 20.664-11.578 39.847-25.427 2.384-1.625 4.683-2.406 7.426-3.293 4.77-1.645 8.8-6.062 13.562-6.062M238 545c1.782 3.333 2.488 6.245 3 10l3 1v-9h1c.774 16.752 1.19 33.262 0 50l-2 1c-2.176-10.287-3.424-20.511-4.187-31l-.254-3.468c-.42-6.193-.644-12.325-.559-18.532"/><path fill="#6d5c95" d="M131 501c-.317 5.146-.85 9.91-2.5 14.813-1.948 5.957-2.217 11.96-2.5 18.187h-3q-1.01-4.591-2-9.187l-.578-2.62-.547-2.548-.508-2.333c-.833-5.244-.291-7.867 2.633-12.312l1-3c2.928-.976 4.956-1.082 8-1M46 484l1 3h3l1 4h-4c.185 4.342.185 4.342 2 8 .04 1.666.043 3.334 0 5l-4 1v-2l-6 1v6h-2v-3l-5-1v-2l-3-1c4.545-4.798 4.545-4.798 7.25-6 2.053-.903 2.053-.903 2.5-3.625L39 491l6-1-1-5zM1044 491l2.375 1c3.37.93 5.232.976 8.625.75 3.782-.074 5.78.257 8.625 2.813 2.287 2.692 2.387 3.562 2.75 7.312L1066 506h-4l-.187 1.813c-1.151 3.098-2.92 3.74-5.813 5.187l-3 1-1-3-2-1h3v-3c3.73-2.034 5.67-3 10-3v-2l-2.812.313c-5.534-.012-10.637-2.282-15.188-5.313-1.187-3.312-1.187-3.312-1-6M48 508a89 89 0 0 1 5 2l2-1 2 1v4l6 2c-1.45 3.791-3.152 7.387-5 11l-3-2-3 2c-1.875-.562-1.875-.562-4-2-1.569-3.78-2.307-5.97-1.125-9.937L48 513h-4c1-3 1-3 4-5"/><path fill="#b8a8e8" d="M784 851c-.966 2.517-1.482 3.745-3.948 4.957l-2.384.64-2.651.736-2.83.73-2.882.778A719 719 0 0 1 761 861l-2.1.545c-14.488 3.728-14.488 3.728-20.9 3.455l-2-2c10.684-3.813 21.465-7.051 32.438-9.937l3.608-.966 3.388-.874 3.033-.79C781 850 781 850 784 851"/><path fill="#6d5c95" d="M201 373h1c.248 2.791.474 5.581.688 8.375l.22 2.406c.166 2.305.166 2.305.092 6.219l-3 2a96 96 0 0 0-2.687 7.625l-.682 2.14A615 615 0 0 0 195 407l-2-1c-1.901-6.571-2.223-13.207-2-20h2l1.313-2.875C196 380 196 380 199 378l2 1zM84 507c2.31 4.457 4 7.904 4 13l-11 2v-2l-11-3-1-4h2v-2h6l1-2c3.947-.18 6.598-.094 10 2zM968 511q2.514.428 5 1l1 8h2c-1.54 5.015-3.03 9.615-6 14-2.937-.375-2.937-.375-6-1-1.478-2.957-1.06-5.742-1-9h3l.184-2.59.254-3.347c.08-1.103.162-2.205.246-3.34C967 512 967 512 968 511M60 477c3.273 0 5.847.3 9 1l-4 7h-4l.75 2.25L62 490c-1.937 2.313-1.937 2.313-4 4v-8c-2.048.564-2.048.564-4 2l-.5 3-.5 3c-1.937 1.25-1.937 1.25-4 2l-2 2c-.934-3.01-1.044-3.867 0-7h4l-1-4h-3l-1-2-2-1c3.435-2.29 4.985-2.178 9-2v2h4l.375-2.375C58 479 58 479 60 477M1011 494c3.902.434 6.341 1.663 9.5 3.938 4.016 2.877 7.454 5.062 12.5 5.062v4h4v2c-5.904.43-9.633-.373-14.922-3.027-4.449-2.083-7.266-1.828-12.078-.973l-1-1c.086-2.031.086-2.031.375-4.5l.273-2.469C1010 495 1010 495 1011 494"/><path fill="#6d5c95" d="M1005 482c1.813.125 1.813.125 4 1 3 5.036 3 5.036 3 8l1.828-.324c6.61-.992 6.61-.992 9.735.762L1025 493c-.312 1.875-.312 1.875-1 4l-3 2-2.187-1.437c-2.708-1.505-4.775-2.129-7.813-2.563a431 431 0 0 0-.562 4.313l-.317 2.425c-.269 2.43-.269 2.43.879 5.262-1.437 2.188-1.437 2.188-3 4-1.18-2.36-1.185-3.945-1.281-6.578l-.114-2.77-.105-2.902c-.294-8.42-.294-8.42-1.5-16.75"/><path fill="#b8a8e8" d="M0 0c3.132 2.135 4.89 3.834 7 7v3l1.688.625c3.346 1.99 5.17 4.13 7.312 7.375-.187 3.875-.187 3.875-1 7-3.282-3.077-5.945-6.257-8.625-9.875C2.087 9.637-2.961 6.353-9 3l1-3c2.977-1.488 4.817-.811 8 0" style="fill:#b8a8e8;fill-opacity:1" transform="translate(470 902)"/><path fill="#b8a8e8" d="m331 917 2 1a271 271 0 0 1-2.812 3.5l-1.583 1.969C327 925 327 925 324 925l-1 3h-4l-.812 2.375C317 933 317 933 314 935h-4l-.687 2.875C308 941 308 941 305.438 942.125L303 943l-.43 1.852c-.734 2.767-1.92 3.629-4.132 5.398l-1.942 1.578L295 953l-1-2c1.188-2.562 1.188-2.562 3-5l2.063-.437L301 945c.73-1.977 1.394-3.98 2-6 1.5-1.875 1.5-1.875 3-3h2v-3c5.257-4 5.257-4 8-4l1-3h3v-2l5-2v-2a101 101 0 0 1 6-3"/><path fill="#6d5c95" d="M999 472c1.626.06 3.251.149 4.875.25l2.742.14 2.383.61c1.11 2.027 1.11 2.027 2 4l3.375.313c3.625.687 3.625.687 4.973 2.156 2.083 3.524 2.652 5.294 2.652 9.531-5.7.456-8.548-.396-13-4l-1-2-3-1-1 3 2-10-7-1zM176 387h2c.455 40.833.455 40.833-2 51l-2 1c-.933-3.124-1.076-5.8-.95-9.05l.116-3.026.147-3.236.14-3.324c.512-11.151 1.46-22.256 2.547-33.364"/><path fill="#6d5c95" d="M170 411h1c3.582 25.97 3.582 25.97 3 37l-4-2-.148 2.809-.227 3.628-.21 3.622L169 459l-2 1c-.215-6.4-.014-12.537.938-18.875 1.468-9.99 1.722-20.044 2.062-30.125"/><path fill="#b8a8e8" d="M272 351h2c-2.047 6.41-4.397 12.646-6.937 18.875-4.537 11.25-8.587 22.496-12.063 34.125h-1c-.193-5.005.343-8.933 1.906-13.684l1.245-3.79q.673-1.983 1.349-3.964l.678-2.02C262.64 370.253 266.602 360.437 272 351"/><path fill="#6d5c95" d="M76.938 500.625c3.442.422 4.829.712 7.062 3.375.25 3.688.25 3.688 0 7l-10-2-1 3-7-1v-4c2.313-1.562 2.313-1.562 5-3l1.438-1.687C74 501 74 501 76.938 500.625M156 448h2c-.15 7.193-1.269 13.774-3.375 20.625l-.634 2.117c-1.187 3.684-1.675 5.048-4.991 7.258-1.095-10.123 2.128-21.12 7-30"/><path fill="#b8a8e8" d="M849 371h2c-.778 4.315-1.574 8.627-2.375 12.938l-.672 3.732-.664 3.545-.603 3.285L846 397l-2 1v-4l-4 1c1.555-8.48 4.185-16.777 9-24M238 545c1.782 3.333 2.488 6.245 3 10l3 1v-9h1c.226 8.596-.08 16.602-2 25h-3q-.509-4.218-1-8.437c-.095-.784-.19-1.567-.29-2.374-.625-5.433-.798-10.72-.71-16.189"/><path fill="#6d5c95" d="M184 362c2.541.984 3.758 1.555 5.082 3.988 2.433 7.742 2.433 7.742.918 12.012l-1-2-2.5-.5-2.5-.5-1-2-3-1c.565-3.958 1.809-6.666 4-10"/><path fill="#b8a8e8" d="M485 877c9.707 2.427 15.805 9.585 22 17l-1 2c-1.812-.125-1.812-.125-4-1l-1.375-2.875c-2.048-3.939-3.613-4.342-7.625-6.125-3.05-1.928-6.026-3.958-9-6zM708 701h3c-1.369 4.106-4.162 5.285-7.687 7.438l-3.7 2.308-1.821 1.129c-2.635 1.654-5.213 3.386-7.792 5.125l-1-2-5 1c3.495-4.059 6.717-5.99 11.648-8.027 2.31-.955 4.548-1.994 6.79-3.098l1.933-.945c1.817-.943 1.817-.943 3.629-2.93"/><path fill="#6d5c95" d="M944 554h3c3.792 6.32 3.792 6.32 4.938 10.063.998 2.76 1.803 3.982 3.687 6.125C958 573 958 573 958 576l-3 1c-11-15.31-11-15.31-11-23M73 474v2h3l1 4-7 1-.187 2.313C69 486 69 486 66.625 487.813 64 489 64 489 61 489v-4l1.813-.125c2.538-.752 2.538-.752 3.937-3.937L68 478l-2-2c4.75-2 4.75-2 7-2M119 512c2.335 2.257 4.187 4.28 6 7l2-1-1 16h-3q-1.006-4.655-2-9.312l-.578-2.67-.547-2.569-.508-2.364C119 515 119 515 119 512M53 482v2l3 1v2l-2 1-.375 2.938L53 494c-1.937 1.25-1.937 1.25-4 2l-2 2c-.934-3.01-1.044-3.867 0-7h4l-1-4h-3l-1-2-2-1c3.435-2.29 4.985-2.178 9-2M999 472c1.626.06 3.251.149 4.875.25l2.742.14 2.383.61c1.094 2 1.094 2 2 4 3.562.819 3.562.819 7 1l-1 3h-6l-2 4-1-2-3-1-1 3 2-10-7-1zM184 529c5.74 4.92 6.448 10.954 7.082 18.098-.087 3.085-.766 5.133-2.082 7.902h-1q-1.007-5.374-2-10.75l-.578-3.078-.547-2.969-.508-2.73C184 533 184 533 184 529"/><path fill="#6d5c95" d="M45 487v3h-2l-1 2-3-1v5l-3 1v-3l-2.375-.875C31 492 31 492 29 490c12.996-4.502 12.996-4.502 16-3M29 491l-1 6h-3l-2 4-2.875-.562c-3.024-.725-3.024-.725-5.125.562.357-2.784.788-3.813 2.926-5.703l2.387-1.547 2.363-1.578C25 491 25 491 29 491"/><path fill="#b8a8e8" d="m692 882 2 1-2 4h-5v2c-8.035 4.079-8.035 4.079-12.062 3.75L673 892c3.562-2.96 7.458-4.81 11.625-6.75l2.063-.996c1.742-.816 3.525-1.542 5.312-2.254"/><path fill="#6d5c95" d="M87 472c2 0 2 0 3.5 1.438L92 475l2 1c.043 1.666.04 3.334 0 5-1 1-1 1-3.066 1.098L84 482zM171 423c4.416 4.416 3.056 13.246 3.063 19.125A976 976 0 0 1 174 448l-4-2c-.157-7.716.325-15.315 1-23M1066 505l-4 1-.187 1.813c-1.151 3.098-2.92 3.74-5.813 5.187l-3 1-1-3-2-1h3v-3c4.778-2.914 7.551-3.199 13-2M170 369h1v20l-1-2c-2.025-.652-2.025-.652-4-1 .368-6.303 1.166-11.333 4-17M74 500c-1.283 2.862-2.53 5.025-5 7h-3l-1 3a207 207 0 0 1-1.125-3.875l-.633-2.18L63 502c3.602-3.602 6.307-2.939 11-2"/><path fill="#b8a8e8" d="M406 880c-2.826 4.238-5.122 3.977-10 5v3h-6l-1-4q3.683-1.294 7.375-2.562l2.117-.749c5.281-1.802 5.281-1.802 7.508-.689"/><path fill="#6d5c95" d="M1046 502c2.002.038 4.004.155 6 .313l3.313.238L1058 503l1 2c-3 2-3 2-6 2v3c-1.875-.187-1.875-.187-4-1-1.125-2.5-1.125-2.5-2-5l-2-1zM177 372a416 416 0 0 1-.375 4.813c-.07.893-.14 1.786-.21 2.707C176 382 176 382 174 385l-2-1-1 3v-13c5-2 5-2 6-2M55 510h2v4l6 2c-1.45 3.791-3.152 7.387-5 11-1.523-1.227-1.523-1.227-3-3-.04-2.086-.04-2.086.375-4.375.53-3.496.627-6.174-.375-9.625"/><path fill="#6d5c95" d="M1041 506c3.375.313 3.375.313 7 1l2 3h-2l-1 5c-2.437-.812-2.437-.812-5-2l-1-3h-2zM989 461q3.51.43 7 1v5h-2v4h-4a544 544 0 0 1-1.062-4.437l-.598-2.497L988 462zM999 466l3 1v3l1.793.227c4.417.735 7.36 1.334 10.27 4.898L1016 478l-3 1c-2.187-1.25-2.187-1.25-4-3v-3l-1.934.035-2.504.027-2.496.036C1000 473 1000 473 999 472c-.04-2-.043-4 0-6"/><path fill="#b8a8e8" d="m278 970 1 3 3-1c1 1 1 1 1.063 3.563L283 978c-3.325 1.108-5.622.845-9 0 .498-3.688 1.1-5.605 4-8"/><path fill="#6d5c95" d="m70 487 3 1c.125 7.75.125 7.75-1 10-1.812-.125-1.812-.125-4-1-1.75-3.062-1.75-3.062-3-6l1.938-.875c2.214-.953 2.214-.953 3.062-3.125M1018 479l5 1v2l6-1v6c-6.367-.367-6.367-.367-9.437-3.437C1018 481 1018 481 1018 479"/><path fill="#6d5c95" d="M1010 486c3.875.875 3.875.875 5 2q3.492.553 7 1v-3l5 1-2 6-1.703-.992c-2.566-1.126-4.265-1.215-7.047-1.133l-2.422.055-1.828.07zM62.016 503.152C64 504 64 504 65.046 506.066l.704 2.497.734 2.503L67 513c-4.259-.819-6.175-2.704-9-6v-3c2-1 2-1 4.016-.848"/><path fill="#b8a8e8" d="M665 730v2a1293 1293 0 0 1-6.812 3.5l-1.948 1.012c-2.935 1.49-4.901 2.488-8.24 2.488v-2a794 794 0 0 1 6.813-4.062l1.947-1.182c4.9-2.87 4.9-2.87 8.24-1.756"/><path fill="#6d5c95" d="m45 503-3 10h-4q.172-2.22.375-4.437c.07-.824.14-1.648.21-2.497L39 504c2-1 2-1 6-1"/><path fill="#b8a8e8" d="m239 545 4 1 2-1-1 11-4-1zM689 715c-1.147 3.44-1.845 3.878-4.812 5.75l-2.083 1.36c-2.504 1.059-3.598.814-6.105-.11 3.986-4.328 6.968-7 13-7"/><path fill="#6d5c95" d="M42 496c-5.143 5.571-5.143 5.571-9 6v2l-4-1c8.15-8.616 8.15-8.616 13-7M93 451l-3 1v2h2l2 3-1 3-6-1c.506-2.169 1-4 2-6l-4 2v-3c2.709-1.354 5.01-1.065 8-1"/><path fill="#b8a8e8" d="M446 870h18l-1 2-7 1-1 2h-2v-3h-7z"/><path fill="#6d5c95" d="M73 474v2h3l1 4c-6.4.492-6.4.492-9.437-2L66 476c4.75-2 4.75-2 7-2M55 506c2.313.188 2.313.188 5 1 1.813 2.563 1.813 2.563 3 5l-3 1-1 2-2-1v-4h-2z"/><path fill="#b8a8e8" d="m823 458 2 1q-.466 2.407-.937 4.813l-.528 2.707C823 469 823 469 822 472l-3 1a709 709 0 0 1 .875-5.812l.492-3.27C821 461 821 461 823 458"/><path fill="#6d5c95" d="m46 484 1 3h3l1 4h-4l-1 3v-2h-3v-2h2l-1-5z"/><path fill="#b8a8e8" d="M768 622h2l-1 7h-2v2l-4 1c1.144-3.873 2.233-7.003 5-10"/><path fill="#6d5c95" d="M109 531c3.408 2.884 4.866 4.37 5.813 8.813L115 543h-3a665 665 0 0 1-1.5-4.312l-.844-2.426C109 534 109 534 109 531M903 22h5c1.354 2.709 1.065 5.01 1 8h-2v-2l-4-2zM33 505c1.938.625 1.938.625 4 2 .75 3.125.75 3.125 1 6l-4 2a544 544 0 0 1-1.062-4.437l-.598-2.497L32 506zM38 487c-.875 4.75-.875 4.75-2 7-2.915-1.074-4.778-1.778-7-4 6.75-3 6.75-3 9-3"/><path fill="#b8a8e8" d="m705 876 1 3c-4.23 2.417-7.123 3.348-12 3 3.41-2.865 6.907-4.347 11-6"/><path fill="#6d5c95" d="M64 477q2.514.428 5 1c-.625 1.938-.625 1.938-2 4-3.125.75-3.125.75-6 1 1.875-4.875 1.875-4.875 3-6M89 453c-.875 3.282-1.509 5.509-3.937 7.938-.681.35-1.362.7-2.063 1.062l-3-1 1.438-1.312c1.799-1.711 1.799-1.711 2.562-4.688 3-2 3-2 5-2M971 532h1v7l-4 2c-.75-1.687-.75-1.687-1-4 1.875-2.75 1.875-2.75 4-5M1050 502c6.152.586 6.152.586 8 1l1 2c-3.228 2.152-4.284 2.2-8 2zM60 492l4 1h-2l2 9-4 1c-1.374-3.818-.68-7.073 0-11"/><path fill="#b8a8e8" d="m358 898 2 1c-5.143 5.571-5.143 5.571-9 6 .125-1.812.125-1.812 1-4 2.938-1.812 2.938-1.812 6-3M746 887l1 3-7 3-2-2c3.5-4 3.5-4 8-4"/><path fill="#6d5c95" d="M1028 489h6l1 4c-5.75.125-5.75.125-8-1zM206 607l1 7h-2l-1 2-2-8c2-1 2-1 4-1M1008 472c3.255.349 4.019 1.021 6.25 3.563L1016 478l-3 1c-2.595-1.45-3.776-2.346-4.75-5.187zM102 457l-1 5-5-1v-4c3-1 3-1 6 0"/><path fill="#b8a8e8" d="M292 315c1 3 1 3 .223 5.043l-1.16 2.144-1.153 2.168L289 326h-3c1.45-4.11 3.511-7.433 6-11M510 957h4v2l5 1 1 3c-4.032 0-5.809-1.641-9-4zM350 902l1 3-2 3c-2.625.188-2.625.188-5 0l-1-2z"/><path fill="#6d5c95" d="M1057.563 508.938 1061 509c-2.404 3.607-3.947 3.855-8 5 0-4.982 0-4.982 4.563-5.062M23 495l-1 4h-6l-1 2c.313-1.875.313-1.875 1-4 3-2 3-2 7-2M47 491h5c-.398 2.886-.79 3.822-3.062 5.75L47 498c-.934-3.01-1.044-3.867 0-7M1032 482c2.375-.187 2.375-.187 5 0l2 3c-3.287.8-4.71 1.097-8 0z"/><path fill="#b8a8e8" d="m278 970 2 4c-1.312 1.5-1.312 1.5-3 3h-3c.564-3.27 1.5-4.826 4-7M333 912l2 1c-.625 1.938-.625 1.938-2 4-3.125.75-3.125.75-6 1v-2a125 125 0 0 1 6-4"/><path fill="#6d5c95" d="M24 504h2v3l5 1-3 3-4-2zM1022 486l5 1-2 6-5-3 2-1zM963 528l1.688 1.5c2.694 1.748 4.166 1.762 7.312 1.5l-2 3-6-1zM57 493h4l-1 6-4-2z"/><path fill="#6d5c95" d="m1018 490 4 1-1 6-3-1zM1029 481v6h-5l1-5c3-1 3-1 4-1M44 513v6h-4v-4c3-2 3-2 4-2M1042 509l1 2 5-1-1 5-5-2z"/><path fill="#6d5c95" d="M1048 510c1.938.313 1.938.313 4 1l1 3-6 1zM44 499h5v5h-3zM82 499v3l-8-1v-2c5.75-1.125 5.75-1.125 8 0"/><path fill="#b8a8e8" d="m699 703 2 1-5 5-3-1z"/><path fill="#6d5c95" d="M44 513h4l-1 5h-3zM57 510h5v3h-2l-1 2-2-1zM41 503h4l-2 6h-2zM61 503l3 1 1 5h-3zM71 474h2v2h3l1 4c-1.875-.187-1.875-.187-4-1-1.25-2.562-1.25-2.562-2-5M990 474h2l-1 6-3-1c.875-3.875.875-3.875 2-5"/><path fill="#b8a8e8" d="m692 882 2 1-1 3h-5l-1-2c2.375-1.062 2.375-1.062 5-2"/><path d="M238.636 974.415c-2.152-1.574-2.362-3.295-2.34-19.182.045-32.27 6.858-51.429 45.399-127.673 33.204-65.685 54.43-104.366 61.65-112.35 1.061-1.173 1.929-2.954 1.929-3.959s.54-1.827 1.201-1.827c.66 0 2.06-2.055 3.109-4.567 2.72-6.514 12.788-23.444 13.942-23.444.533 0 1.335-1.453 1.78-3.23s3.976-8.763 7.844-15.528c3.868-6.764 9.955-17.78 13.527-24.477 10.208-19.144 40.918-69.175 49.339-80.382 1.006-1.34 6.254-9.012 11.66-17.05l23.351-34.71c14.515-21.575 40.937-58.413 47.608-66.376 2.245-2.679 5.034-6.716 6.197-8.97s3.12-4.362 4.345-4.683c1.226-.32 2.526-1.764 2.89-3.208s1.508-3.721 2.543-5.06c1.034-1.34 3.112-4.174 4.617-6.297 2.96-4.176 16.142-20.482 21.738-26.891 1.9-2.177 3.919-3.958 4.485-3.958s1.952-1.936 3.08-4.3c1.128-2.366 2.897-4.626 3.931-5.022 1.034-.397 2.965-2.847 4.29-5.443 1.324-2.597 3.219-4.722 4.21-4.722s1.802-.532 1.802-1.183c0-3.18 39.705-44.42 64.549-67.047 15.023-13.682 22.987-21.082 44.536-41.38 11.07-10.427 26.174-22.777 29.346-23.995 1.606-.616 8.935-10.335 8.935-11.848 0-.382-1.344-.694-2.987-.694-4.75 0-32.784 15.517-40.224 22.265-1.327 1.203-3.656 2.5-5.176 2.88-1.521.382-2.766 1.32-2.767 2.085s-2.605 3.028-5.785 5.03-8.25 5.902-11.264 8.667-15.518 13.936-27.786 24.827c-23.657 21-67.12 63.559-75.18 73.617-2.65 3.306-9.433 10.979-15.075 17.05-33.987 36.576-82.086 101.217-138.257 185.807-31.93 48.084-42.14 64.357-60.362 96.214-8.238 14.402-16.185 28.103-17.66 30.448-6.055 9.623-31.632 54.696-34.728 61.197-2.69 5.649-3.605 6.673-4.74 5.306-.826-.997-2.385-14.673-3.781-33.186-1.306-17.32-3.054-36.149-3.885-41.843-.963-6.6-1.522-25.36-1.542-51.76-.026-33.925.367-44.05 2.177-56.023 2.793-18.485 8.707-49.636 11.027-58.086.976-3.554 3.25-12.766 5.055-20.469 3.72-15.884 10.024-36.568 11.678-38.311 2.155-2.274 4.818 2.617 12.447 22.86 4.218 11.194 8.358 21.031 9.198 21.86 3.14 3.097 8.307-7.075 18.356-36.14 8.32-24.067 11.596-32.255 24.403-61.002 24.254-54.44 42.027-79.83 85.68-122.399 18.154-17.704 20.346-19.377 25.467-19.443 3.015-.039 3.35.376 3.35 4.16 0 2.312-.82 7.35-1.822 11.195-2.668 10.245-3.693 42.194-1.576 49.15 2.264 7.44 5.566 7.935 9.247 1.384 3.572-6.355 5.528-12.038 11.163-32.44 10.452-37.84 22.605-58.262 53.524-89.94 19.332-19.806 52.407-48.29 56.074-48.29.784 0 2.725-1.545 4.312-3.431 3.607-4.287 32.237-23.364 35.063-23.364 1.146 0 2.084-.7 2.084-1.557 0-1.674 48.015-29.225 70.029-40.182 28.305-14.088 71.554-31.98 99.867-41.315 23.916-7.885 68.635-19.249 75.747-19.249 5.933 0 6.476.244 7.23 3.246.947 3.775-1.082 40.838-3.823 69.828-6.62 70.01-28.739 136.468-58.57 175.986-24.309 32.202-47.255 49.385-108.272 81.081-26.08 13.548-35.663 19.74-36.653 23.687-.432 1.721-.419 3.496.03 3.944s4.213-.133 8.367-1.292c4.153-1.16 15.103-4.023 24.332-6.363 19.787-5.018 38.731-11.797 58.222-20.834 7.76-3.597 15.038-6.54 16.175-6.54s2.386-.829 2.774-1.841c.744-1.937 16.393-11.837 17.292-10.939.946.946-2.428 7.719-4.18 8.391-.943.362-1.715 1.452-1.715 2.423 0 .97-2.52 6.027-5.6 11.237s-10.662 18.82-16.847 30.243c-14.812 27.356-32.182 57.101-41.289 70.705-9.909 14.803-30.701 42.801-35.708 48.084-2.234 2.357-9.785 10.862-16.78 18.9-19.968 22.947-41.011 39.461-65.498 51.4-15.195 7.41-22.009 9.851-61.857 22.164-35.426 10.946-50.138 16.028-51.47 17.779-.509.67-.783 2.862-.608 4.871l.317 3.654 12.078.35c7.143.208 12.386-.146 12.832-.867.415-.671 7.859-2.084 16.542-3.14 23.632-2.875 38.063-5.26 59.632-9.853 10.718-2.282 20.445-4.15 21.618-4.15 3.309 0 2.547 2.462-3.057 9.88-6.928 9.17-37.663 41.253-39.53 41.264-.815.005-2.212 1.398-3.102 3.098-2.342 4.47-25.16 23.85-38.65 32.828-38.206 25.426-85.369 46.47-147.365 65.754-28.424 8.841-35.854 12.202-47.102 21.303-14.494 11.727-30.307 36.82-67.901 107.744-19.582 36.944-44.277 79.273-49.529 84.898-3.45 3.696-5.272 4.69-8.597 4.69-2.32 0-5.282-.778-6.582-1.729" style="fill:#b8a8e8;fill-opacity:1;stroke-width:1.2179"/><path d="M237.983 972.274c-.986-1.842-1.222-8.075-.772-20.4 1.103-30.242 6.88-46.878 38.092-109.699 31.057-62.51 54.69-106.62 65.275-121.842 2.583-3.714 4.696-7.233 4.696-7.82 0-.589.777-1.935 1.727-2.993s3.759-5.759 6.241-10.448c2.483-4.689 6.226-10.991 8.319-14.006 2.093-3.014 4.69-7.428 5.772-9.81 5.775-12.713 35.98-65.175 54.655-94.929 23.23-37.011 97.534-143.254 106.897-152.846 1.962-2.009 3.924-4.65 4.36-5.87 1.097-3.072 17.155-23.86 27.19-35.2 4.577-5.172 10.432-12.023 13.01-15.223 12.485-15.496 36.047-41.1 51.741-56.227 27.175-26.192 81.124-75.654 89.334-81.904 9.194-6.999 15.609-13.859 15.609-16.69 0-4.584-19.422 3.768-37.691 16.208-5.446 3.708-10.361 6.742-10.923 6.742s-1.773.905-2.692 2.012c-.918 1.107-4.683 4.238-8.367 6.96-22.414 16.558-96.99 88.39-126.998 122.323-28.871 32.65-60.598 73.575-94.602 122.027-18.344 26.138-58.907 86.718-74.616 111.437-13.354 21.015-62.138 104.404-75.413 128.91-4.932 9.105-9.317 16.57-9.743 16.591-1.122.055-1.968-6.844-4.771-38.935-1.376-15.741-3.001-34.1-3.612-40.8-1.535-16.817-1.472-78.006.095-93.344 3.602-35.236 24.577-125.268 29.184-125.268 1.633 0 3.68 4.375 12.112 25.88 4.233 10.798 8.199 19.183 9.073 19.183 4.133 0 7.437-6.874 20.126-41.871 23.222-64.046 47.232-110.066 74.102-142.032 5.349-6.363 19.605-21.298 31.68-33.187 18.629-18.342 22.511-21.618 25.615-21.618 4.671 0 5.03 1.294 3.035 10.956-.9 4.357-1.974 17.238-2.388 28.626-.63 17.32-.438 21.45 1.17 25.271 2.465 5.863 6.011 6.093 9.392.609 1.342-2.177 4.405-10.26 6.806-17.964 10.832-34.753 13.204-41.464 18.294-51.76 9.018-18.245 19.888-32.239 43.062-55.438 21.537-21.56 35.835-34.267 49.492-43.984a967 967 0 0 0 15.608-11.407c24.154-18.085 86.862-53.872 121.663-69.433 46.282-20.695 78.647-32.235 119.538-42.623 23.898-6.071 29.623-7.124 37.032-6.812l2.932.123-.775 22.227c-1.965 56.39-9.188 102.923-22.293 143.622-13.946 43.312-31.002 74.353-54.605 99.38-20.959 22.222-39.719 34.825-98.445 66.135-23.29 12.418-30.55 17.596-31.083 22.171-.537 4.604 1.18 4.437 27.95-2.726 25.864-6.92 39.256-11.577 63.063-21.931 9.3-4.045 17.314-7.353 17.811-7.353s1.512-.772 2.255-1.714c.744-.943 4.504-3.7 8.355-6.127 7.492-4.721 9.143-3.785 3.957 2.245-1.674 1.946-3.043 4.009-3.043 4.583 0 1.627-41.86 76.487-52.665 94.182-14.443 23.652-39.317 57.802-53.226 73.073-41.365 45.417-63.85 60.569-113.56 76.524-84.236 27.036-75.28 23.46-75.28 30.06v5.006l13.092-.468c15.168-.541 55.126-6.43 84.908-12.514 20.979-4.285 26.232-4.948 26.217-3.307-.047 5.36-46.727 53.896-69.634 72.404-13.103 10.586-35.526 24.656-55.68 34.938-31.214 15.925-54.973 25.458-101.914 40.89-16.8 5.524-34.232 11.858-38.737 14.076-21.367 10.519-35.05 29.605-76.883 107.236-32.425 60.176-52.957 94.738-57.826 97.344-4.199 2.247-10.739 1.486-12.3-1.431" style="fill:#b8a8e8;fill-opacity:1;stroke-width:1.2179"/></svg>